<?xml version="1.0" encoding="utf-8"?>
<!-- Generator: Adobe Illustrator 14.0.0, SVG Export Plug-In . SVG Version: 6.00 Build 43363)  -->
<!DOCTYPE svg PUBLIC "-//W3C//DTD SVG 1.1//EN" "http://www.w3.org/Graphics/SVG/1.1/DTD/svg11.dtd">
<svg version="1.1" id="Layer_1" xmlns="http://www.w3.org/2000/svg" xmlns:xlink="http://www.w3.org/1999/xlink" x="0px" y="0px"
	 width="23.375px" height="23.376px" viewBox="312.312 313.293 23.375 23.376"
	 enable-background="new 312.312 313.293 23.375 23.376" xml:space="preserve">
<circle cx="324" cy="324.981" r="11.688"/>
<circle fill="#69F70D" cx="324" cy="324.981" r="11.05"/>
<g>
	<path d="M329.133,324.977h-10.167c-0.296,0-0.54-0.254-0.54-0.543c0-0.048,0.008-0.103,0.021-0.146l0.54-3.779
		c0.046-0.246,0.268-0.294,0.53-0.294h9.063c0.263,0,0.485,0.044,0.533,0.291l0.538,3.846c0.01,0.045,0.021,0.071,0.021,0.119
		C329.673,324.758,329.428,324.977,329.133,324.977z M328.725,329.214c-0.571,0-1.036-0.452-1.036-1.012
		c0-0.558,0.465-1.009,1.036-1.009c0.568,0,1.033,0.451,1.033,1.009C329.758,328.762,329.293,329.214,328.725,329.214z
		 M319.359,329.214c-0.567,0-1.032-0.452-1.032-1.012c0-0.558,0.465-1.009,1.032-1.009c0.574,0,1.038,0.451,1.038,1.009
		C320.397,328.762,319.934,329.214,319.359,329.214z M321.143,317.994h6.349v0.952h-6.349
		C320.509,318.945,320.509,317.994,321.143,317.994z M330.096,319.451c-0.184-0.894-0.728-1.253-1.608-1.612
		c-0.885-0.358-2.929-0.788-4.463-0.788c-1.546,0-3.599,0.43-4.481,0.788c-0.883,0.359-1.416,0.719-1.599,1.612l-0.608,4.971v6.904
		h0.952v0.635c0,1.268,1.587,1.268,1.587,0v-0.635h7.936v0.635c0,1.268,1.906,1.268,1.906,0v-0.635h0.951v-6.904L330.096,319.451z"
		/>
</g>
</svg>
