<?xml version="1.0" encoding="utf-8"?>
<!-- Generator: Adobe Illustrator 14.0.0, SVG Export Plug-In . SVG Version: 6.00 Build 43363)  -->
<!DOCTYPE svg PUBLIC "-//W3C//DTD SVG 1.1//EN" "http://www.w3.org/Graphics/SVG/1.1/DTD/svg11.dtd">
<svg version="1.1" id="Layer_1" xmlns="http://www.w3.org/2000/svg" xmlns:xlink="http://www.w3.org/1999/xlink" x="0px" y="0px"
	 width="24.209px" height="24.208px" viewBox="0 0 24.209 24.208" enable-background="new 0 0 24.209 24.208" xml:space="preserve">
<circle fill="#FFFFFF" cx="12.104" cy="12.104" r="12.104"/>
<circle fill="#9608F2" cx="12.105" cy="12.104" r="11.05"/>
<g>
	<path fill="#FFFFFF" d="M17.237,12.099H7.071c-0.296,0-0.54-0.254-0.54-0.543c0-0.048,0.008-0.103,0.02-0.146l0.54-3.779
		c0.046-0.246,0.268-0.294,0.531-0.294h9.063c0.263,0,0.485,0.044,0.533,0.291l0.538,3.846c0.01,0.045,0.021,0.071,0.021,0.119
		C17.777,11.881,17.532,12.099,17.237,12.099z M16.829,16.337c-0.572,0-1.037-0.452-1.037-1.012c0-0.558,0.465-1.009,1.037-1.009
		c0.568,0,1.033,0.451,1.033,1.009C17.862,15.885,17.397,16.337,16.829,16.337z M7.463,16.337c-0.567,0-1.032-0.452-1.032-1.012
		c0-0.558,0.465-1.009,1.032-1.009c0.575,0,1.038,0.451,1.038,1.009C8.501,15.885,8.038,16.337,7.463,16.337z M9.248,5.117h6.348
		v0.952H9.248C8.613,6.068,8.613,5.117,9.248,5.117z M18.2,6.574c-0.184-0.894-0.728-1.253-1.609-1.612
		c-0.884-0.358-2.928-0.788-4.463-0.788c-1.545,0-3.598,0.43-4.481,0.788C6.763,5.32,6.23,5.68,6.047,6.574l-0.608,4.971v6.904
		h0.952v0.635c0,1.268,1.587,1.268,1.587,0v-0.635h7.936v0.635c0,1.268,1.906,1.268,1.906,0v-0.635h0.951v-6.904L18.2,6.574z"/>
</g>
</svg>
